<svg width="103" height="49" viewBox="0 0 103 49" fill="none" xmlns="http://www.w3.org/2000/svg"><path d="M36.808 14a11.197 11.197 0 1 1-.931-7.701c.392.846.592 1.768.584 2.7 0 3.94-3.725 5.653-5.323 5.653a.424.424 0 0 1-.477-.473 5.02 5.02 0 0 1 .222-1.074l1.756-7.76h-2.683l-.394 1.509a4.298 4.298 0 0 0-3.704-2.042c-3.64 0-6.577 3.482-6.577 7.694.01 3.106 2.31 5.256 4.961 5.256 1.308 0 2.425-.767 3.224-1.66h.065a1.622 1.622 0 0 0 1.723 1.66c1.425 0 5.233-1.05 7.554-3.762Z" fill="#0066B3"></path><path fill-rule="evenodd" clip-rule="evenodd" d="M7.915 14.938a9.672 9.672 0 0 0 3.88-.856l-.541 3.03c-1.405.43-2.862.663-4.331.692-4.141 0-6.376-2.55-6.376-5.663 0-2.88 1.902-7.308 7.426-7.304 3.26 0 5.71 1.644 5.71 5.402-.038.78-.14 1.557-.309 2.32h-8.79c.05 1.333.716 2.38 3.331 2.38ZM5.991 8.351a3.166 3.166 0 0 0-1.146 1.79h5.263c0-1.332-.527-2.453-2.096-2.453a3.166 3.166 0 0 0-2.02.663Z" fill="#0066B3"></path><path d="M41.566 14.95a8.706 8.706 0 0 1-3.475-.717l-.841 2.926c1.699.448 3.45.665 5.208.645 3.199-.043 5.792-1.512 5.792-4.628 0-1.87-1.928-2.584-3.47-3.154-1.026-.38-1.881-.696-1.881-1.249 0-.86 1.045-1.074 1.998-1.074a8.56 8.56 0 0 1 3.425.691l.906-2.808a14.332 14.332 0 0 0-4.12-.727c-2.876 0-6.257 1.167-6.257 4.069 0 2.472 1.866 3.121 3.345 3.636.97.337 1.774.616 1.774 1.314 0 1.007-1.716 1.075-2.404 1.075ZM51.09 24.925l-.476 2.547h.05c.688-1.45 2.07-2.833 3.833-2.833a4.801 4.801 0 0 1 1.791.312l-.978 3.782c-.548-.426-1.164-.523-1.977-.523-1.79 0-2.866 1.57-3.188 3.403l-1.214 5.71h-4.299l2.644-12.398h3.815Z" fill="#0066B3"></path><path fill-rule="evenodd" clip-rule="evenodd" d="M63.123 34.737a9.726 9.726 0 0 0 3.876-.856l-.541 3.041c-1.407.425-2.866.65-4.335.67-4.14 0-6.38-2.547-6.38-5.663 0-2.88 1.906-7.308 7.426-7.308 3.26 0 5.71 1.645 5.71 5.402-.036.786-.14 1.567-.308 2.336h-8.78c.047 1.332.713 2.378 3.332 2.378Zm-1.915-6.584a3.163 3.163 0 0 0-1.155 1.788l5.276.01c0-1.332-.523-2.45-2.095-2.45a3.164 3.164 0 0 0-2.026.652ZM78.655 37.327h3.94c.05-.498.122-1.118.262-1.856l3.302-15.99h-4.194l-1.5 7.447h-.037c-.645-1.333-2.149-2.286-4.298-2.286-4.234 0-6.28 3.787-6.28 7.856 0 2.783 1.949 5.115 4.614 5.115 2.382 0 3.403-.881 4.5-2.26h.031l-.34 1.974Zm-2.353-2.999c-1.358 0-2.05-1.02-2.05-2.547 0-1.927 1.215-3.854 3.225-3.854 1.432 0 2.045 1.286 2.045 2.508.014 1.655-1.2 3.893-3.22 3.893Z" fill="#0066B3"></path><path d="M92.374 19.764h-4.33l-.667 3.141h4.33l.667-3.141ZM91.278 24.925h-4.33l-2.58 12.398h4.342l2.568-12.398ZM92.424 24.925h2.45l.599-2.661 4.52-1.215-.856 3.876h2.948l-.523 3.002h-3.116l-.738 3.446a11.708 11.708 0 0 0-.358 2.15 1.308 1.308 0 0 0 1.404 1.382c.478-.04.945-.16 1.383-.358l-.477 2.833c-.881.146-1.772.225-2.665.237-2.189 0-3.94-1.075-3.94-3.665.032-.86.16-1.714.38-2.547l.737-3.474H91.89l.534-3.006ZM55.443 12.947l4.209-7.827H64.2L56.07 19.158l-.473.756c-1.261 2.189-2.669 3.643-5.406 3.643-.866.007-1.73-.094-2.572-.3l.67-3.182c.457.129.93.195 1.404.197 1.222 0 1.874-.877 2.508-2.045l.458-.756L49.923 5.12h4.355l1.118 7.827h.047ZM44.066 33.523a9.465 9.465 0 0 1-3.962.81c-2.665 0-4.542-1.38-4.542-4.332 0-3.141 2.15-7.569 6.598-7.569 1.39-.032 2.776.157 4.105.563l.67-3.192c-.996-.326-2.704-.655-5.466-.655-6.233 0-10.478 5.215-10.478 10.746 0 4.567 3.07 7.734 8.425 7.734a17.135 17.135 0 0 0 3.89-.487l.76-3.618ZM26.188 7.939c1.44 0 2.364 1.057 2.364 2.557 0 2.01-1.497 4.152-3.55 4.152-1.5 0-2.396-1.118-2.396-2.618 0-1.917 1.475-4.091 3.582-4.091Z" fill="#0066B3"></path><path fill-rule="evenodd" clip-rule="evenodd" d="M49.324 42.667c.012.447-.095.888-.311 1.28a2.752 2.752 0 0 1-.82.895c-.204.141-.421.261-.649.358l1.53 3.224h-1.942l-1.16-2.866H44.75l-.555 2.866h-1.738l1.573-8.114h2.271a4.38 4.38 0 0 1 1.64.276c.415.158.772.438 1.025.803.244.38.369.826.358 1.278Zm-2.568 1.404c.246-.107.453-.288.591-.519.14-.237.21-.509.204-.784a1.003 1.003 0 0 0-.358-.831 1.609 1.609 0 0 0-1.039-.29h-.641l-.505 2.607h.834c.315.007.627-.055.914-.182ZM54.404 43.85a1.68 1.68 0 0 0-.233-.433 1.596 1.596 0 0 0-.61-.47 2.042 2.042 0 0 0-.834-.16 2.47 2.47 0 0 0-1.1.26 2.96 2.96 0 0 0-.916.717 3.636 3.636 0 0 0-.842 2.36c-.01.447.08.89.261 1.297.157.354.412.656.734.87.33.211.716.318 1.107.309a2.074 2.074 0 0 0 1.419-.555c.112-.106.21-.226.29-.359l-.097.753h1.526l1.075-5.467h-1.548l-.232.878Zm-.513 2.443a1.53 1.53 0 0 1-.523.602c-.217.15-.474.228-.738.225a1.157 1.157 0 0 1-.583-.143.953.953 0 0 1-.39-.415 1.43 1.43 0 0 1-.133-.638c-.005-.29.06-.578.19-.838.121-.243.304-.45.53-.602.21-.145.46-.224.716-.226.206-.004.408.046.587.147.165.1.299.243.384.416.096.197.144.414.14.634.009.29-.053.577-.18.838Z" fill="#0066B3"></path><path d="m58.388 41.89 1.769-.469-.28 1.537h1.197l-.269 1.364H59.61l-.297 1.559c-.036.193-.069.354-.097.487a1.668 1.668 0 0 0-.043.358.612.612 0 0 0 .15.444.573.573 0 0 0 .427.154c.175-.002.348-.035.512-.096l-.212 1.26a5.28 5.28 0 0 1-1.017.115c-.427.027-.85-.1-1.193-.358a1.257 1.257 0 0 1-.43-1.021v-.05c-.001-.034-.002-.067 0-.1a4.74 4.74 0 0 1 .068-.44l.073-.363v-.002l.003-.016.358-1.923h-1.046l.28-1.365h1.038l.205-1.075Z" fill="#0066B3"></path><path fill-rule="evenodd" clip-rule="evenodd" d="M64.35 42.786c-.426-.004-.85.08-1.242.247-.373.156-.709.39-.985.684-.284.299-.506.65-.652 1.036-.161.414-.241.856-.236 1.3a2.68 2.68 0 0 0 .204 1.075c.127.307.325.58.576.798.267.229.578.4.914.502a3.9 3.9 0 0 0 1.623.15l.458-.064a6.37 6.37 0 0 0 .903-.219l.222-1.357a3.24 3.24 0 0 1-.817.29 3.779 3.779 0 0 1-.806.097 2.196 2.196 0 0 1-1.268-.283 1.187 1.187 0 0 1-.43-.935h3.769c.052-.178.09-.36.114-.545.022-.18.034-.362.036-.544a2.127 2.127 0 0 0-.63-1.627 2.443 2.443 0 0 0-1.752-.605Zm.85 2.221c.002.04.002.079 0 .118h-2.29c.087-.32.26-.61.499-.838a1.216 1.216 0 0 1 .87-.326.845.845 0 0 1 .928.928c0 .034-.003.072-.007.112v.006Z" fill="#0066B3"></path><path d="M70.853 42.94a2 2 0 0 1 .77-.154 1.56 1.56 0 0 1 1.182.455c.306.352.463.81.437 1.275 0 .043.001.084.003.125.002.08.004.158-.003.233-.01.115-.025.237-.046.359l-.62 3.191H70.92l.587-3.023c.03-.075.03-.147.03-.208v-.175a.78.78 0 0 0-.183-.57.719.719 0 0 0-.556-.19.986.986 0 0 0-.523.147 1.176 1.176 0 0 0-.397.426c-.12.21-.201.44-.24.677l-.566 2.916h-1.655l1.056-5.466h1.59l-.12.774c.205-.358.526-.637.909-.792ZM80.513 42.958h-2.038l-2.167 2.045 1.014-5.226h-1.655l-1.677 8.647h1.655l.48-2.479 1.688 2.479h1.977l-2.12-2.895 2.843-2.572Z" fill="#0066B3"></path><path fill-rule="evenodd" clip-rule="evenodd" d="M84.72 43.417c.1.13.18.277.236.433l.218-.878h1.562L85.66 48.44h-1.53l.101-.753c-.08.133-.178.253-.29.359a2.055 2.055 0 0 1-1.422.555 1.96 1.96 0 0 1-1.104-.308 2.073 2.073 0 0 1-.737-.87 3.07 3.07 0 0 1-.262-1.297 3.639 3.639 0 0 1 .226-1.286c.14-.393.35-.757.62-1.075.255-.297.566-.54.916-.716a2.46 2.46 0 0 1 1.1-.262c.285-.005.569.05.831.161.24.103.449.264.61.47Zm-.8 3.478c.224-.152.404-.36.523-.602a1.79 1.79 0 0 0 .204-.838 1.434 1.434 0 0 0-.136-.634.99.99 0 0 0-.386-.416 1.12 1.12 0 0 0-.584-.147c-.262 0-.518.078-.735.226a1.59 1.59 0 0 0-.526.602c-.13.26-.197.547-.194.838-.003.22.042.438.133.638a.976.976 0 0 0 .376.415c.18.098.383.148.587.144.264.002.521-.077.738-.226Z" fill="#0066B3"></path><path d="M91.027 45.859c-.049.338-.19.657-.408.92a.94.94 0 0 1-.716.32c-.488 0-.717-.251-.717-.756.002-.13.016-.26.043-.387l.588-2.999h-1.688l-.62 3.17c-.049.236-.074.476-.075.717-.028.467.128.925.434 1.279a1.56 1.56 0 0 0 1.2.458c.383.003.758-.11 1.075-.326.289-.189.521-.452.673-.763l-.143.921h1.558l1.056-5.456H91.6l-.573 2.902ZM97.724 41.256a1.073 1.073 0 0 0-.37.24c-.231.28-.377.62-.423.981l-.09.48h1.362l-.258 1.365H96.58l-.781 4.102h-1.684l.788-4.102h-.906l.254-1.364h.914l.132-.695c.332-1.694 1.215-2.54 2.648-2.54.24-.002.48.023.716.075.188.038.368.106.534.2l-.233 1.39a1.65 1.65 0 0 0-.802-.204 1.074 1.074 0 0 0-.436.072Z" fill="#0066B3"></path></svg>